#!OML:ASF H:\Dans Jumps\Project 1\Capture day 1\Session 1\subject.ASF
:FULLY-SPECIFIED
:DEGREES
670
root 0.267235 17.6772 -6.76806 10.1216 -0.630089 -1.29253
lowerback 3.743 0.307447 -0.258088
upperback 5.68168 0.376014 1.05014
thorax 3.74661 0.152696 1.2253
lowerneck -12.7576 0.128896 -1.18819
upperneck 33.2488 0.0323231 1.41307
head 13.2841 0.0511354 0.768566
rclavicle -4.52235e-015 -1.16289e-014
rhumerus -34.1202 -9.33699 -81.3821
rradius 35.5378
rwrist 21.8479
rhand -19.019 -25.2869
rfingers 7.12502
rthumb 7.28683 -55.1414
lclavicle -4.52235e-015 -1.16289e-014
lhumerus -34.5879 -5.98946 91.0059
lradius 42.1135
lwrist 22.6424
lhand -28.9426 -7.57592
lfingers 7.12502
lthumb -2.29624 22.3915
rfemur -24.333 -1.90476 19.3474
rtibia 26.5382
rfoot -11.4708 1.2691
rtoes 15.8171
lfemur -22.2276 6.85276 -18.4365
ltibia 23.5976
lfoot -9.78262 4.83643
ltoes 7.42317
671
root 0.268602 17.6787 -6.76838 10.1128 -0.631845 -1.30018
lowerback 3.72095 0.306712 -0.257848
upperback 5.67809 0.374882 1.05466
thorax 3.75527 0.152013 1.22996
lowerneck -12.7497 0.125262 -1.1757
upperneck 33.2652 0.0238318 1.41125
head 13.2896 0.0486672 0.764515
rclavicle -1.3418e-015 -4.96962e-016
rhumerus -34.1448 -9.39964 -81.3412
rradius 35.489
rwrist 21.8569
rhand -19.0057 -25.3089
rfingers 7.12502
rthumb 7.29963 -55.1629
lclavicle -1.3418e-015 -4.96962e-016
lhumerus -34.6044 -5.88456 90.9221
lradius 41.8803
lwrist 22.5434
lhand -28.9001 -7.5021
lfingers 7.12502
lthumb -2.25523 22.4657
rfemur -24.2941 -1.89862 19.349
rtibia 26.4807
rfoot -11.4454 1.26778
rtoes 15.8295
lfemur -22.1915 6.85609 -18.4317
ltibia 23.548
lfoot -9.76917 4.82664
ltoes 7.46957
672
root 0.269996 17.6801 -6.76881 10.1039 -0.635465 -1.30637
lowerback 3.70173 0.305967 -0.260279
upperback 5.67383 0.373758 1.05774
thorax 3.76162 0.151273 1.2346
lowerneck -12.7397 0.122377 -1.16087
upperneck 33.2812 0.0165172 1.40719
head 13.2945 0.0466981 0.759333
rclavicle -5.71506e-015 -1.09332e-014
rhumerus -34.1732 -9.46368 -81.3001
rradius 35.4385
rwrist 21.8711
rhand -18.988 -25.3289
rfingers 7.12502
rthumb 7.31674 -55.1824
lclavicle -5.71506e-015 -1.09332e-014
lhumerus -34.6256 -5.77875 90.8345
lradius 41.6318
lwrist 22.4128
lhand -28.8744 -7.48565
lfingers 7.12502
lthumb -2.23041 22.4824
rfemur -24.2571 -1.88868 19.3486
rtibia 26.4268
rfoot -11.4212 1.26204
rtoes 15.8304
lfemur -22.1568 6.86242 -18.4294
ltibia 23.5004
lfoot -9.75542 4.81818
ltoes 7.49529
673
root 0.271472 17.6815 -6.76919 10.0956 -0.640333 -1.31213
lowerback 3.6827 0.304575 -0.263381
upperback 5.66981 0.371799 1.05964
thorax 3.76813 0.150114 1.2384
lowerneck -12.7313 0.12007 -1.14584
upperneck 33.2959 0.00994513 1.40327
head 13.2992 0.0450879 0.754269
rclavicle 4.96962e-016 -3.97569e-015
rhumerus -34.2013 -9.52935 -81.26
rradius 35.3835
rwrist 21.8945
rhand -18.9717 -25.3496
rfingers 7.12502
rthumb 7.33249 -55.2025
lclavicle 4.96962e-016 -3.97569e-015
lhumerus -34.6501 -5.67107 90.7432
lradius 41.3737
lwrist 22.2657
lhand -28.8525 -7.45672
lfingers 7.12502
lthumb -2.20929 22.5116
rfemur -24.2224 -1.88065 19.3478
rtibia 26.3766
rfoot -11.3974 1.25869
rtoes 15.8284
lfemur -22.1237 6.87118 -18.4284
ltibia 23.4555
lfoot -9.7443 4.80861
ltoes 7.5161
674
root 0.272989 17.6829 -6.76961 10.0879 -0.64658 -1.31971
lowerback 3.66588 0.302408 -0.264712
upperback 5.66539 0.368852 1.06071
thorax 3.77304 0.148559 1.24034
lowerneck -12.7244 0.118635 -1.1324
upperneck 33.3097 0.00462729 1.40068
head 13.3037 0.0439888 0.750185
rclavicle 2.23633e-015 -3.57812e-015
rhumerus -34.2274 -9.5963 -81.2213
rradius 35.323
rwrist 21.9284
rhand -18.9491 -25.366
rfingers 7.12502
rthumb 7.35433 -55.2181
lclavicle 2.23633e-015 -3.57812e-015
lhumerus -34.6802 -5.56278 90.6484
lradius 41.1067
lwrist 22.1142
lhand -28.838 -7.43364
lfingers 7.12502
lthumb -2.19525 22.5348
rfemur -24.19 -1.87013 19.3484
rtibia 26.3299
rfoot -11.3745 1.2544
rtoes 15.8269
lfemur -22.0932 6.88346 -18.4261
ltibia 23.4144
lfoot -9.7343 4.7977
ltoes 7.53352
675
root 0.27461 17.6841 -6.76997 10.0795 -0.653683 -1.32772
lowerback 3.64978 0.298371 -0.267338
upperback 5.66268 0.363368 1.06265
thorax 3.77936 0.145653 1.24392
lowerneck -12.7196 0.11885 -1.12134
upperneck 33.3205 0.00285093 1.39667
head 13.3074 0.0439375 0.746459
rclavicle -7.45443e-016 1.98785e-016
rhumerus -34.2462 -9.65993 -81.1823
rradius 35.2541
rwrist 21.972
rhand -18.9283 -25.3701
rfingers 7.12502
rthumb 7.37439 -55.2216
lclavicle -7.45443e-016 1.98785e-016
lhumerus -34.7112 -5.44847 90.5515
lradius 40.8318
lwrist 21.9638
lhand -28.8227 -7.4022
lfingers 7.12502
lthumb -2.18046 22.5664
rfemur -24.1583 -1.86108 19.3492
rtibia 26.2861
rfoot -11.3518 1.25307
rtoes 15.8253
lfemur -22.0632 6.89866 -18.4239
ltibia 23.3766
lfoot -9.72635 4.78482
ltoes 7.55087
